<svg width="40" height="44" viewBox="0 0 40 44" fill="none" xmlns="http://www.w3.org/2000/svg">
<path fill-rule="evenodd" clip-rule="evenodd" d="M12.6875 10.75C12.6875 6.71142 15.9614 3.4375 20 3.4375C24.0386 3.4375 27.3125 6.71142 27.3125 10.75C27.3125 14.7886 24.0386 18.0625 20 18.0625C15.9614 18.0625 12.6875 14.7886 12.6875 10.75ZM20 0.0625C14.0975 0.0625 9.3125 4.84746 9.3125 10.75C9.3125 16.6525 14.0975 21.4375 20 21.4375C25.9025 21.4375 30.6875 16.6525 30.6875 10.75C30.6875 4.84746 25.9025 0.0625 20 0.0625ZM3.6875 40C3.6875 33.4761 8.97614 28.1875 15.5 28.1875H24.5C31.0239 28.1875 36.3125 33.4761 36.3125 40V42.25C36.3125 43.182 37.068 43.9375 38 43.9375C38.932 43.9375 39.6875 43.182 39.6875 42.25V40C39.6875 31.6122 32.8878 24.8125 24.5 24.8125H15.5C7.11218 24.8125 0.3125 31.6122 0.3125 40V42.25C0.3125 43.182 1.06802 43.9375 2 43.9375C2.93198 43.9375 3.6875 43.182 3.6875 42.25V40Z" fill="#83A300"/>
</svg>
