<svg width="32" height="32" viewBox="0 0 32 32" fill="none" xmlns="http://www.w3.org/2000/svg">
<path d="M25.3327 10.0739V26.3702C25.3327 28.0066 24.0469 29.3332 22.4609 29.3332H9.53781C7.95176 29.3332 6.66602 28.0066 6.66602 26.3702V5.62947C6.66602 3.99307 7.95176 2.6665 9.53781 2.6665H18.1532M25.3327 10.0739H19.5891C18.7961 10.0739 18.1532 9.41063 18.1532 8.59243V2.6665M25.3327 10.0739L18.1532 2.6665" stroke="#7D7D7D" stroke-width="1.5" stroke-linejoin="round"/>
<path d="M19.2461 24.0058V18.6665H22.668V19.4704H20.2048V20.9306H22.432V21.7344H20.2048V24.0058H19.2461Z" fill="#7D7D7D"/>
<path d="M15.8083 24.0058H13.9941V18.6665H15.8378C17.4308 18.6665 18.3969 19.6695 18.3969 21.3288C18.3969 22.9955 17.4308 24.0058 15.8083 24.0058ZM14.9529 23.1725H15.7567C16.8703 23.1725 17.4381 22.5604 17.4381 21.3288C17.4381 20.1046 16.8703 19.4999 15.7862 19.4999H14.9529V23.1725Z" fill="#7D7D7D"/>
<path d="M9.33398 24.0058V18.6665H11.3399C12.5641 18.6665 13.2205 19.4114 13.2205 20.4364C13.2205 21.4615 12.5567 22.199 11.3252 22.199H10.2927V24.0058H9.33398ZM10.2927 21.4099H11.1924C11.9151 21.4099 12.2396 21.0043 12.2396 20.4364C12.2396 19.8612 11.9151 19.4704 11.1924 19.4704H10.2927V21.4099Z" fill="#7D7D7D"/>
</svg>
