<svg width="20" height="20" viewBox="0 0 20 20" fill="none" xmlns="http://www.w3.org/2000/svg">
<ellipse cx="9.99935" cy="5.83333" rx="3.33333" ry="3.33333" stroke="#7D7D7D" stroke-width="1.5"/>
<path d="M3.33398 17.4993V16.666C3.33398 13.9046 5.57256 11.666 8.33398 11.666V11.666" stroke="#7D7D7D" stroke-width="1.5" stroke-linecap="round"/>
<path d="M13.5234 10.3801C13.8277 9.31372 15.339 9.31372 15.6433 10.3801V10.3801C15.8065 10.9521 16.3942 11.2914 16.9712 11.1468V11.1468C18.0469 10.8771 18.8025 12.1859 18.0312 12.9827V12.9827C17.6174 13.41 17.6174 14.0887 18.0312 14.516V14.516C18.8025 15.3128 18.0469 16.6215 16.9712 16.3519V16.3519C16.3942 16.2073 15.8065 16.5466 15.6433 17.1186V17.1186C15.339 18.185 13.8277 18.185 13.5234 17.1186V17.1186C13.3601 16.5466 12.7725 16.2073 12.1954 16.3519V16.3519C11.1198 16.6215 10.3642 15.3128 11.1355 14.516V14.516C11.5493 14.0887 11.5493 13.41 11.1355 12.9827V12.9827C10.3642 12.1859 11.1198 10.8771 12.1954 11.1468V11.1468C12.7725 11.2914 13.3601 10.9521 13.5234 10.3801V10.3801Z" stroke="#7D7D7D" stroke-width="1.5"/>
<circle cx="14.584" cy="13.75" r="1.25" stroke="#7D7D7D" stroke-width="1.5"/>
</svg>
