<svg width="20" height="20" viewBox="0 0 20 20" fill="none" xmlns="http://www.w3.org/2000/svg">
<path d="M2.5 5.83333H4.16667M4.16667 5.83333L4.83415 15.1781C4.9276 16.4864 6.0162 17.5 7.3278 17.5H12.6722C13.9838 17.5 15.0724 16.4864 15.1658 15.1781L15.8333 5.83333M4.16667 5.83333H5.83333M15.8333 5.83333H17.5M15.8333 5.83333H14.1667M5.83333 5.83333L6.19325 4.39366C6.47148 3.28074 7.47144 2.5 8.61861 2.5H11.3814C12.5286 2.5 13.5285 3.28074 13.8067 4.39366L14.1667 5.83333M5.83333 5.83333H14.1667M7.08333 9.58333V13.75M10 9.58333V13.75M12.9167 9.58333V13.75" stroke="#7D7D7D" stroke-width="1.5" stroke-linecap="round"/>
</svg>
