<svg width="20" height="20" viewBox="0 0 20 20" fill="none" xmlns="http://www.w3.org/2000/svg">
<path d="M9.16667 4.16671L3.33333 4.16677C2.8731 4.16677 2.5 4.53986 2.5 5.0001V16.6668C2.5 17.127 2.8731 17.5001 3.33333 17.5001H15C15.4602 17.5001 15.8333 17.127 15.8333 16.6668V11.6667M7.24655 10.1737L15.4167 2.34876C15.7421 2.02332 16.2697 2.02332 16.5952 2.34876L17.9167 3.67025C18.2421 3.99569 18.2421 4.52332 17.9167 4.84876L9.74655 12.6737C9.63975 12.7805 9.50593 12.8562 9.3594 12.8929L7.59742 13.3334C6.9871 13.486 6.43428 12.9331 6.58686 12.3228L7.02735 10.5608C7.06398 10.4143 7.13975 10.2805 7.24655 10.1737Z" stroke="white" stroke-width="1.5" stroke-linecap="round"/>
</svg>
