<svg width="88" height="88" viewBox="0 0 88 88" fill="none" xmlns="http://www.w3.org/2000/svg">
<circle cx="44" cy="44" r="43.5" fill="white" stroke="#E3E3E3"/>
<path d="M65.9616 44C65.9616 49.0898 64.1983 54.0222 60.9722 57.9567C57.7461 61.8911 53.2567 64.5843 48.2691 65.5773C43.2814 66.5703 38.104 65.8016 33.6191 63.4023C29.1342 61.0029 25.6193 57.1214 23.6732 52.419C21.7271 47.7167 21.4703 42.4844 22.9465 37.6137C24.4227 32.7431 27.5406 28.5354 31.7689 25.7077C35.9973 22.8799 41.0744 21.607 46.1353 22.1059C51.1962 22.6048 55.9277 24.8446 59.5236 28.4436L52.6532 35.32C50.6468 33.3118 48.0068 32.0621 45.183 31.7837C42.3591 31.5054 39.5262 32.2156 37.1669 33.7934C34.8076 35.3712 33.0679 37.719 32.2443 40.4366C31.4206 43.1543 31.5639 46.0738 32.6497 48.6976C33.7356 51.3214 35.6968 53.4872 38.1993 54.8259C40.7017 56.1647 43.5906 56.5936 46.3735 56.0395C49.1565 55.4855 51.6614 53.9827 53.4615 51.7874C55.2616 49.5921 56.2455 46.84 56.2455 44H65.9616Z" fill="#E94235"/>
<path d="M65.9616 44C65.9616 47.3307 65.206 50.618 63.7518 53.6139C62.2975 56.6098 60.1826 59.2361 57.5665 61.2947C54.9504 63.3533 51.9015 64.7906 48.6496 65.498C45.3977 66.2055 42.0277 66.1647 38.7938 65.3787C35.56 64.5927 32.5467 63.0821 29.9811 60.9607C27.4155 58.8393 25.3647 56.1626 23.9833 53.1324C22.6019 50.1022 21.9259 46.7976 22.0064 43.4678C22.0869 40.1381 22.9218 36.87 24.448 33.9102L33.0923 38.3755C32.2415 40.0254 31.7761 41.8472 31.7312 43.7033C31.6864 45.5595 32.0632 47.4017 32.8332 49.0908C33.6033 50.78 34.7465 52.2722 36.1767 53.4547C37.6069 54.6373 39.2866 55.4794 41.0893 55.9175C42.8921 56.3557 44.7706 56.3784 46.5834 55.984C48.3962 55.5897 50.0958 54.7885 51.5541 53.6409C53.0125 52.4933 54.1914 51.0293 55.0021 49.3592C55.8128 47.6892 56.234 45.8567 56.234 44H65.9616Z" fill="#FBBC04"/>
<path d="M65.9616 44C65.9616 48.9513 64.2929 53.7578 61.2253 57.6422C58.1577 61.5266 53.8706 64.2617 49.0574 65.4052C44.2441 66.5487 39.1862 66.0338 34.7017 63.9436C30.2171 61.8534 26.5681 58.3103 24.3449 53.8872L33.0348 49.5116C34.2741 51.9773 36.3083 53.9524 38.8082 55.1175C41.3081 56.2827 44.1276 56.5698 46.8107 55.9323C49.4938 55.2949 51.8837 53.7702 53.5937 51.6048C55.3037 49.4395 56.234 46.7601 56.234 44H65.9616Z" fill="#34A853"/>
<path fill-rule="evenodd" clip-rule="evenodd" d="M44.6885 39.7422H65.9602C65.9602 40.1547 65.9682 40.6657 65.977 41.2257C66.0079 43.2061 66.0484 45.7995 65.7793 46.8151C65.4851 49.0976 64.8342 51.3256 63.8451 53.4161C62.4526 56.3593 60.4246 58.9564 57.9076 61.0199L51.7435 53.4879C53.1467 52.3376 54.2771 50.8899 55.0534 49.2492C55.207 48.9245 55.346 48.5939 55.4701 48.2583H44.6885V39.7422Z" fill="#4285F4"/>
</svg>
