<svg width="24" height="24" viewBox="0 0 24 24" fill="none" xmlns="http://www.w3.org/2000/svg">
<path d="M8.81236 6.28064L7.84361 2.37439C7.73944 1.95772 7.51027 1.60877 7.15611 1.32752C6.80194 1.04626 6.40611 0.90564 5.96861 0.90564C5.34361 0.90564 4.83319 1.15564 4.43736 1.65564C4.04152 2.15564 3.92694 2.70772 4.09361 3.31189L4.84361 6.28064L2.18736 6.28064C1.54152 6.28064 1.02069 6.53064 0.624857 7.03064C0.229023 7.53064 0.11444 8.09314 0.281107 8.71814C0.385273 9.15564 0.61444 9.51501 0.968607 9.79626C1.32277 10.0775 1.72902 10.2181 2.18736 10.2181L5.81236 10.2181L6.71861 13.7806L4.06236 13.7806C3.41652 13.7806 2.89569 14.0306 2.49986 14.5306C2.10402 15.0306 1.98944 15.5931 2.15611 16.2181C2.26027 16.6556 2.48944 17.015 2.84361 17.2963C3.19777 17.5775 3.60402 17.7181 4.06236 17.7181L7.68736 17.7181L8.65611 21.6244C8.76027 22.0411 8.98944 22.3848 9.34361 22.6556C9.69777 22.9265 10.0936 23.0619 10.5311 23.0619C11.1561 23.0619 11.6665 22.8119 12.0624 22.3119C12.4582 21.8119 12.5728 21.2598 12.4061 20.6556L11.6561 17.7181L15.1874 17.7181L16.1561 21.6244C16.2603 22.0411 16.4894 22.3848 16.8436 22.6556C17.1978 22.9265 17.5936 23.0619 18.0311 23.0619C18.6561 23.0619 19.1665 22.8119 19.5624 22.3119C19.9582 21.8119 20.0728 21.2598 19.9061 20.6556L19.1561 17.7181L21.8124 17.7181C22.4582 17.7181 22.979 17.4681 23.3749 16.9681C23.7707 16.4681 23.8853 15.9056 23.7186 15.2806C23.6144 14.8431 23.3853 14.4838 23.0311 14.2025C22.6769 13.9213 22.2707 13.7806 21.8124 13.7806L18.1874 13.7806L17.2811 10.2181L19.9374 10.2181C20.5832 10.2181 21.104 9.96814 21.4999 9.46814C21.8957 8.96814 22.0103 8.40564 21.8436 7.78064C21.7394 7.34314 21.5103 6.98377 21.1561 6.70252C20.8019 6.42127 20.3957 6.28064 19.9374 6.28064L16.3124 6.28064L15.3436 2.37439C15.2394 1.95772 15.0103 1.60877 14.6561 1.32752C14.3019 1.04626 13.9061 0.905641 13.4686 0.905641C12.8436 0.905641 12.3332 1.15564 11.9374 1.65564C11.5415 2.15564 11.4269 2.70772 11.5936 3.31189L12.3436 6.28064L8.81236 6.28064ZM9.78111 10.2181L13.3124 10.2181L14.2186 13.7806L10.6874 13.7806L9.78111 10.2181Z" fill="#C4F500"/>
</svg>
